HIERARCHY
ROOT Hips
{
    OFFSET   0.000000   0.000000   0.000000
    CHANNELS 6 Xposition Yposition Zposition Zrotation Xrotation Yrotation
    JOINT Chest
    {
        OFFSET   0.000000   8.007230   0.000000
        CHANNELS 3 Zrotation Xrotation Yrotation
        JOINT Chest2
        {
            OFFSET   0.000000  22.077100   0.000000
            CHANNELS 3 Zrotation Xrotation Yrotation
            JOINT Neck
            {
                OFFSET   0.000000  23.255100   0.000000
                CHANNELS 3 Zrotation Xrotation Yrotation
                JOINT Head
                {
                    OFFSET   0.000000  14.370100   1.956600
                    CHANNELS 3 Zrotation Xrotation Yrotation
                    End Site
                    {
                        OFFSET   0.000000  19.566000   0.000000
                    }
                }
            }
            JOINT LeftCollar
            {
                OFFSET   3.911900  19.017000  -0.467063
                CHANNELS 3 Zrotation Xrotation Yrotation
                JOINT LeftShoulder
                {
                    OFFSET  10.383700   0.000000   0.000000
                    CHANNELS 3 Zrotation Xrotation Yrotation
                    JOINT LeftElbow
                    {
                        OFFSET  26.662100   0.001193   0.000980
                        CHANNELS 3 Zrotation Xrotation Yrotation
                        JOINT LeftWrist
                        {
                            OFFSET  28.869000  -0.000059  -0.000082
                            CHANNELS 3 Zrotation Xrotation Yrotation
                            JOINT LeftFinger0
                            {
                                OFFSET   2.044650  -2.323450   3.252850
                                CHANNELS 3 Zrotation Xrotation Yrotation
                                JOINT LeftFinger01
                                {
                                    OFFSET   3.088130   0.000000   0.000000
                                    CHANNELS 3 Zrotation Xrotation Yrotation
                                    JOINT LeftFinger02
                                    {
                                        OFFSET   2.639460   0.000000   0.000000
                                        CHANNELS 3 Zrotation Xrotation Yrotation
                                        End Site
                                        {
                                            OFFSET   2.582190   0.000000   0.000000
                                        }
                                    }
                                }
                            }
                            JOINT LeftFinger1
                            {
                                OFFSET   8.364480   0.000000   3.252850
                                CHANNELS 3 Zrotation Xrotation Yrotation
                                JOINT LeftFinger11
                                {
                                    OFFSET   4.646930   0.000000   0.000000
                                    CHANNELS 3 Zrotation Xrotation Yrotation
                                    JOINT LeftFinger12
                                    {
                                        OFFSET   2.323470   0.000000   0.000000
                                        CHANNELS 3 Zrotation Xrotation Yrotation
                                        End Site
                                        {
                                            OFFSET   2.273050   0.000000   0.000000
                                        }
                                    }
                                }
                            }
                            JOINT LeftFinger2
                            {
                                OFFSET   8.364490   0.000016   1.078090
                                CHANNELS 3 Zrotation Xrotation Yrotation
                                JOINT LeftFinger21
                                {
                                    OFFSET   5.111610   0.000000   0.000000
                                    CHANNELS 3 Zrotation Xrotation Yrotation
                                    JOINT LeftFinger22
                                    {
                                        OFFSET   2.788150   0.000016   0.000000
                                        CHANNELS 3 Zrotation Xrotation Yrotation
                                        End Site
                                        {
                                            OFFSET   2.727660   0.000000   0.000000
                                        }
                                    }
                                }
                            }
                            JOINT LeftFinger3
                            {
                                OFFSET   7.899780   0.000015  -1.078090
                                CHANNELS 3 Zrotation Xrotation Yrotation
                                JOINT LeftFinger31
                                {
                                    OFFSET   4.646930   0.000000   0.000000
                                    CHANNELS 3 Zrotation Xrotation Yrotation
                                    JOINT LeftFinger32
                                    {
                                        OFFSET   2.323470   0.000000   0.000000
                                        CHANNELS 3 Zrotation Xrotation Yrotation
                                        End Site
                                        {
                                            OFFSET   2.273050   0.000000   0.000000
                                        }
                                    }
                                }
                            }
                            JOINT LeftFinger4
                            {
                                OFFSET   7.435090   0.000000  -3.252850
                                CHANNELS 3 Zrotation Xrotation Yrotation
                                JOINT LeftFinger41
                                {
                                    OFFSET   3.717550   0.000000   0.000000
                                    CHANNELS 3 Zrotation Xrotation Yrotation
                                    JOINT LeftFinger42
                                    {
                                        OFFSET   1.858770   0.000000   0.000000
                                        CHANNELS 3 Zrotation Xrotation Yrotation
                                        End Site
                                        {
                                            OFFSET   1.818440   0.000000   0.000000
                                        }
                                    }
                                }
                            }
                        }
                    }
                }
            }
            JOINT RightCollar
            {
                OFFSET  -3.911910  19.017000  -0.467062
                CHANNELS 3 Zrotation Xrotation Yrotation
                JOINT RightShoulder
                {
                    OFFSET -10.383700   0.000014   0.000000
                    CHANNELS 3 Zrotation Xrotation Yrotation
                    JOINT RightElbow
                    {
                        OFFSET -26.662100   0.001225   0.001091
                        CHANNELS 3 Zrotation Xrotation Yrotation
                        JOINT RightWrist
                        {
                            OFFSET -28.869000  -0.000020  -0.000085
                            CHANNELS 3 Zrotation Xrotation Yrotation
                            JOINT RightFinger0
                            {
                                OFFSET  -2.044650  -2.323490   3.252850
                                CHANNELS 3 Zrotation Xrotation Yrotation
                                JOINT RightFinger01
                                {
                                    OFFSET  -3.088130   0.000000   0.000000
                                    CHANNELS 3 Zrotation Xrotation Yrotation
                                    JOINT RightFinger02
                                    {
                                        OFFSET  -2.639460   0.000000   0.000000
                                        CHANNELS 3 Zrotation Xrotation Yrotation
                                        End Site
                                        {
                                            OFFSET  -2.582190   0.000000   0.000000
                                        }
                                    }
                                }
                            }
                            JOINT RightFinger1
                            {
                                OFFSET  -8.364480   0.000000   3.252850
                                CHANNELS 3 Zrotation Xrotation Yrotation
                                JOINT RightFinger11
                                {
                                    OFFSET  -4.646930   0.000000   0.000000
                                    CHANNELS 3 Zrotation Xrotation Yrotation
                                    JOINT RightFinger12
                                    {
                                        OFFSET  -2.323470   0.000000   0.000000
                                        CHANNELS 3 Zrotation Xrotation Yrotation
                                        End Site
                                        {
                                            OFFSET  -2.273050   0.000000   0.000000
                                        }
                                    }
                                }
                            }
                            JOINT RightFinger2
                            {
                                OFFSET  -8.364480   0.000000   1.078090
                                CHANNELS 3 Zrotation Xrotation Yrotation
                                JOINT RightFinger21
                                {
                                    OFFSET  -5.111620   0.000000   0.000000
                                    CHANNELS 3 Zrotation Xrotation Yrotation
                                    JOINT RightFinger22
                                    {
                                        OFFSET  -2.788160   0.000000   0.000000
                                        CHANNELS 3 Zrotation Xrotation Yrotation
                                        End Site
                                        {
                                            OFFSET  -2.727660   0.000000   0.000000
                                        }
                                    }
                                }
                            }
                            JOINT RightFinger3
                            {
                                OFFSET  -7.899780   0.000000  -1.078090
                                CHANNELS 3 Zrotation Xrotation Yrotation
                                JOINT RightFinger31
                                {
                                    OFFSET  -4.646930   0.000000   0.000000
                                    CHANNELS 3 Zrotation Xrotation Yrotation
                                    JOINT RightFinger32
                                    {
                                        OFFSET  -2.323470   0.000000   0.000000
                                        CHANNELS 3 Zrotation Xrotation Yrotation
                                        End Site
                                        {
                                            OFFSET  -2.273050   0.000000   0.000000
                                        }
                                    }
                                }
                            }
                            JOINT RightFinger4
                            {
                                OFFSET  -7.435090   0.000000  -3.252850
                                CHANNELS 3 Zrotation Xrotation Yrotation
                                JOINT RightFinger41
                                {
                                    OFFSET  -3.717550   0.000000   0.000000
                                    CHANNELS 3 Zrotation Xrotation Yrotation
                                    JOINT RightFinger42
                                    {
                                        OFFSET  -1.858760   0.000000   0.000000
                                        CHANNELS 3 Zrotation Xrotation Yrotation
                                        End Site
                                        {
                                            OFFSET  -1.818440   0.000000   0.000000
                                        }
                                    }
                                }
                            }
                        }
                    }
                }
            }
        }
    }
    JOINT LeftHip
    {
        OFFSET   9.783030   0.000000   0.000000
        CHANNELS 3 Zrotation Xrotation Yrotation
        JOINT LeftKnee
        {
            OFFSET   0.000063 -41.789100   0.000608
            CHANNELS 3 Zrotation Xrotation Yrotation
            JOINT LeftAnkle
            {
                OFFSET   0.000048 -41.133200  -0.000184
                CHANNELS 3 Zrotation Xrotation Yrotation
                JOINT LeftToe
                {
                    OFFSET   0.000000  -6.358960  14.674500
                    CHANNELS 3 Zrotation Xrotation Yrotation
                    End Site
                    {
                        OFFSET   0.000000   0.000000   3.913200
                    }
                }
            }
        }
    }
    JOINT RightHip
    {
        OFFSET  -9.783030   0.000000   0.000000
        CHANNELS 3 Zrotation Xrotation Yrotation
        JOINT RightKnee
        {
            OFFSET   0.000071 -41.789100   0.001239
            CHANNELS 3 Zrotation Xrotation Yrotation
            JOINT RightAnkle
            {
                OFFSET   0.000037 -41.133200  -0.000166
                CHANNELS 3 Zrotation Xrotation Yrotation
                JOINT RightToe
                {
                    OFFSET   0.000000  -6.358960  14.674500
                    CHANNELS 3 Zrotation Xrotation Yrotation
                    End Site
                    {
                        OFFSET   0.000000   0.000000   3.913200
                    }
                }
            }
        }
    }
}
MOTION
Frames: 5
Frame Time:   0.016667
 -1.137460  89.545500   1.756530  -1.835780  -8.217090  -2.801990   0.809282   5.041560  -0.004327   1.628470  10.082600  -0.080933   1.485030  -1.034730   0.033163   2.442140  -2.093910   6.014980  -5.893000   0.122969   3.246410 -71.411300  24.340100  -6.142930  -3.454780 -11.216400 -13.305800  14.869400 -13.067000   7.538670  39.685600  31.380000 -62.148600 -29.322800   0.001123   0.000686  -9.661390   0.004103  -0.002059 -36.636900   8.068140 -10.682300 -30.593500  -0.004801  -0.008438 -21.415500  -0.002542  -0.013222 -29.504300  -0.013902   0.024582 -44.256500  -0.001932  -0.009465 -29.474800  -0.003674  -0.004396 -28.707800  -0.013555   0.024785 -39.274600  -0.001863  -0.004900 -26.156900  -0.004568  -0.003790 -27.261300  -0.655504   1.271930 -40.902800  -0.005494  -0.003296 -27.241300   0.000973  -0.005139  10.227100   1.696950   8.947930  64.909500  24.810100   0.119828  -2.441300  -3.257940  14.902800 -11.910500 -13.677000  -2.447140 -38.408300  30.637800  61.222200  30.916500   0.001216  -0.005032  10.458200   0.000473  -0.003588  29.459900   9.895450  16.921900  25.316600  -0.003054   0.000332  17.721600   0.002460   0.001707  28.268200   5.231930   9.627570  39.217800  -0.008047   0.009612  26.119100  -0.003670   0.006448  27.631600   1.750590   3.320450  30.084900  -0.003871   0.008799  20.036500   0.000000   0.007189  32.620500   0.753832   1.179620  48.942300  -0.007547   0.008017  32.595600  -0.015131   0.002009   2.146900  10.487400   4.845690   1.171630   0.095689  12.339700  -2.714610  -2.834800   1.829870   0.000000   0.000000   0.000000   2.880380  10.582700   0.321274   0.666692   0.803527  -9.832360  -1.780130  -4.949450  -1.929710   0.000000   0.000000   0.000000
 -1.137650  89.545500   1.756530  -1.835840  -8.217090  -2.802310   0.809234   5.041450  -0.004319   1.628360  10.082300  -0.080876   1.484550  -1.034740   0.033146   2.441340  -2.093920   6.003760  -5.910670   0.126438   3.219940 -71.427800  24.297600  -6.112620  -3.433950 -11.156400 -13.342000  14.842900 -13.114700   7.538930  39.710600  31.429600 -62.216600 -29.316200   0.001087   0.000649  -9.658100   0.004097  -0.002077 -36.660600   8.071300 -10.683400 -30.616400  -0.004770  -0.008452 -21.431600  -0.002519  -0.013243 -29.503400  -0.004116   0.007307 -44.255200  -0.001885  -0.009447 -29.473900  -0.003648  -0.004364 -28.707800  -0.004016   0.007371 -39.259700  -0.001812  -0.004890 -26.146900  -0.004536  -0.003764 -27.259700  -0.659370   1.279440 -40.900500  -0.005471  -0.003275 -27.239800   0.000973  -0.005123  10.225400   1.704540   8.947970  64.909500  24.825800   0.119667  -2.439040  -3.266610  14.897600 -11.902200 -13.670600  -2.439670 -38.407800  30.629900  61.216600  30.907000   0.001209  -0.005020  10.453500   0.000481  -0.003579  29.455000   9.901440  16.935600  25.312000  -0.003055   0.000306  17.718300   0.002460   0.001711  28.268200   5.231910   9.627760  39.217000  -0.008052   0.009606  26.118500  -0.003677   0.006443  27.631400   1.750570   3.328970  30.084700  -0.003874   0.008796  20.036400   0.000000   0.007180  32.620300   0.753844   1.179640  48.942000  -0.007551   0.008016  32.595400  -0.015134   0.002007   2.147350  10.482000   4.845610   1.171720   0.105724  12.339700  -2.715670  -2.839310   1.829980   0.000000   0.000000   0.000000   2.880390  10.589200   0.321321   0.667079   0.796894  -9.832250  -1.780980  -4.945700  -1.929680  -0.000000   0.000000   0.000000
 -1.137830  89.545600   1.756550  -1.835920  -8.217090  -2.802620   0.809182   5.041340  -0.004260   1.628250  10.082100  -0.080785   1.484070  -1.034790   0.033109   2.440220  -2.093960   5.983900  -5.940530   0.132221   3.180710 -71.444200  24.255000  -6.082330  -3.390780 -11.051000 -13.408700  14.814800 -13.162500   7.531920  39.756600  31.507100 -62.330400 -29.292900   0.001003   0.000584  -9.646450   0.004079  -0.002122 -36.690300   8.086200 -10.690400 -30.639400  -0.004700  -0.008487 -21.447600  -0.002471  -0.013294 -29.501100   0.019634  -0.034659 -44.251800  -0.001778  -0.009401 -29.471700  -0.003585  -0.004291 -28.707600   0.019146  -0.034925 -39.224600  -0.001696  -0.004866 -26.123500  -0.004459  -0.003702 -27.251400  -0.670500   1.301490 -40.888400  -0.005416  -0.003224 -27.231700   0.000972  -0.005084  10.223600   1.712510   8.948000  64.909500  24.841400   0.119507  -2.436640  -3.275860  14.892400 -11.892800 -13.664400  -2.427460 -38.413500  30.621900  61.211000  30.893700   0.001193  -0.005006  10.446900   0.000493  -0.003570  29.447400   9.907430  16.949300  25.304100  -0.003055   0.000250  17.712800   0.002462   0.001714  28.268100   5.231890   9.628020  39.211800  -0.008074   0.009595  26.115000  -0.003693   0.006428  27.631000   1.750550   3.341080  30.083600  -0.003884   0.008786  20.035700   0.000000   0.007163  32.618800   0.753865   1.179670  48.939900  -0.007566   0.008015  32.593900  -0.015140   0.001997   2.147770  10.476600   4.845540   1.171810   0.115760  12.339700  -2.716730  -2.843830   1.830090  -0.000000   0.000000  -0.000000   2.880440  10.599200   0.321372   0.667466   0.790262  -9.832130  -1.781830  -4.941950  -1.929650   0.000000   0.000000   0.000000
 -1.137790  89.546100   1.756670  -1.835950  -8.220580  -2.801310   0.811045   5.043890  -0.004062   1.632010  10.087200  -0.080703   1.486160  -1.040770   0.033055   2.443540  -2.106140   5.966750  -5.966860   0.138011   3.156150 -71.442600  24.270500  -6.084420  -3.332520 -10.931000 -13.458700  14.804800 -13.157200   7.489760  39.811200  31.575300 -62.438300 -29.245600   0.000875   0.000527  -9.622770   0.004050  -0.002188 -36.685400   8.127290 -10.741900 -30.639200  -0.004600  -0.008539 -21.447500  -0.002412  -0.013372 -29.496400   0.062265  -0.110146 -44.244800  -0.001626  -0.009333 -29.467100  -0.003493  -0.004183 -28.707400   0.060779  -0.110959 -39.169400  -0.001528  -0.004829 -26.086800  -0.004345  -0.003611 -27.231900  -0.679520   1.319600 -40.859600  -0.005337  -0.003146 -27.212500   0.000971  -0.005023  10.227600   1.712940   8.952030  64.904100  24.828600   0.119546  -2.437370  -3.276130  14.899600 -11.897100 -13.664500  -2.416760 -38.424100  30.632400  61.202100  30.888200   0.001167  -0.005005  10.444100   0.000501  -0.003580  29.438200   9.903280  16.948100  25.295600  -0.003055   0.000173  17.706800   0.002478   0.001712  28.268200   5.231860   9.628130  39.195500  -0.008118   0.009582  26.104100  -0.003711   0.006404  27.630900   1.750640   3.346900  30.071600  -0.003902   0.008766  20.027700   0.000000   0.007144  32.603900   0.753889   1.179720  48.917400  -0.007598   0.008017  32.578900  -0.015147   0.001975   2.143980  10.518900   4.846720   1.170590   0.040985  12.341100  -2.708480  -2.805770   1.829720   0.000000   0.000000   0.000000   2.880680  10.604500   0.320907   0.664868   0.791079  -9.832130  -1.780680  -4.942090  -1.929810  -0.000000   0.000000  -0.000000
 -1.137540  89.547200   1.756760  -1.835630  -8.227170  -2.796380   0.814072   5.050830  -0.003904   1.638110  10.101100  -0.080658   1.493530  -1.055780   0.033000   2.455920  -2.136680   5.945950  -5.990660   0.141486   3.144350 -71.442800  24.309600  -6.087640  -3.276330 -10.853200 -13.550400  14.795800 -13.128900   7.454190  39.852300  31.603600 -62.514300 -29.189300   0.000739   0.000467  -9.594620   0.004008  -0.002268 -36.675600   8.160500 -10.791500 -30.639100  -0.004485  -0.008604 -21.447300  -0.002343  -0.013466 -29.493100   0.097801  -0.172952 -44.239900  -0.001458  -0.009252 -29.463800  -0.003387  -0.004059 -28.707000   0.095428  -0.174271 -39.113900  -0.001340  -0.004785 -26.049900  -0.004215  -0.003507 -27.207900  -0.713605   1.388220 -40.824600  -0.005244  -0.003050 -27.189200   0.000970  -0.004948  10.234200   1.712960   8.960460  64.894100  24.815800   0.119893  -2.440250  -3.276340  14.911000 -11.908800 -13.664700  -2.409120 -38.437000  30.647000  61.197500  30.886500   0.001140  -0.005004  10.443200   0.000513  -0.003591  29.432000   9.899170  16.946100  25.290300  -0.003055   0.000094  17.703200   0.002501   0.001710  28.268200   5.231820   9.628170  39.183400  -0.008177   0.009566  26.096100  -0.003735   0.006374  27.630900   1.750810   3.349140  30.060600  -0.003926   0.008742  20.020300   0.000000   0.007120  32.590200   0.753904   1.179780  48.896600  -0.007640   0.008019  32.565100  -0.015157   0.001946   2.140150  10.561200   4.847890   1.169390  -0.033788  12.342400  -2.700310  -2.767730   1.827510  -0.000000   0.000000   0.000000   2.880920  10.610300   0.320105   0.659886   0.791897  -9.832130  -1.777540  -4.942300  -1.930960  -0.000000   0.000000  -0.000000
